<svg width="100" height="100" viewBox="0 0 100 100" fill="none" xmlns="http://www.w3.org/2000/svg">
<path fill-rule="evenodd" clip-rule="evenodd" d="M65.0825 16.667H65.31C68.2559 16.667 70.6317 16.6669 72.5443 16.8488C74.5166 17.0363 76.2351 17.4335 77.7803 18.3805C79.3449 19.3393 80.6604 20.6547 81.6192 22.2193C82.5661 23.7646 82.9633 25.4831 83.1509 27.4554C83.3327 29.368 83.3327 31.7438 83.3327 34.6897V34.9175C83.3327 36.8532 83.3327 38.4686 83.208 39.7806C83.0776 41.1523 82.7946 42.4306 82.0761 43.603C81.373 44.7504 80.4083 45.7151 79.261 46.4182C78.0885 47.1367 76.8102 47.4197 75.4386 47.5501C74.1265 47.6748 72.511 47.6748 70.5754 47.6747L66.8923 47.6748C64.1063 47.6748 61.7832 47.6749 59.9389 47.427C57.9923 47.1652 56.2348 46.5895 54.8225 45.1772C53.4102 43.7649 52.8344 42.0074 52.5727 40.0607C52.3248 38.2164 52.3248 35.8933 52.3249 33.1073L52.3249 29.4245C52.3249 27.4888 52.3248 25.8732 52.4496 24.5611C52.58 23.1894 52.863 21.9112 53.5815 20.7387C54.2846 19.5913 55.2493 18.6267 56.3966 17.9236C57.5691 17.2051 58.8474 16.9221 60.219 16.7917C61.5311 16.6669 63.1467 16.667 65.0825 16.667ZM67.8288 36.0468C66.2306 36.0468 65.4316 36.0468 64.8673 35.6465C64.6683 35.5052 64.4944 35.3314 64.3532 35.1323C63.9528 34.5681 63.9528 33.769 63.9528 32.1709C63.9528 30.5728 63.9528 29.7736 64.3532 29.2094C64.4944 29.0103 64.6683 28.8365 64.8673 28.6952C65.4316 28.2949 66.2306 28.2949 67.8288 28.2949C69.427 28.2949 70.226 28.2949 70.7903 28.6952C70.9893 28.8365 71.1632 29.0103 71.3044 29.2094C71.7048 29.7736 71.7048 30.5727 71.7048 32.1709C71.7048 33.769 71.7048 34.5681 71.3044 35.1323C71.1632 35.3314 70.9893 35.5052 70.7903 35.6465C70.226 36.0468 69.427 36.0468 67.8288 36.0468Z" fill="#F23936"/>
<path fill-rule="evenodd" clip-rule="evenodd" d="M43.6021 17.9236C42.4296 17.2051 41.1513 16.9221 39.7797 16.7917C38.4676 16.6669 36.8521 16.667 34.9163 16.667H34.6888C31.7429 16.667 29.367 16.6669 27.4544 16.8488C25.4821 17.0363 23.7636 17.4335 22.2184 18.3805C20.6538 19.3393 19.3383 20.6547 18.3795 22.2193C17.4326 23.7646 17.0353 25.4831 16.8478 27.4554C16.666 29.368 16.666 31.7437 16.666 34.6896V34.9172C16.666 36.853 16.6659 38.4685 16.7907 39.7806C16.9211 41.1523 17.2041 42.4306 17.9226 43.603C18.6257 44.7504 19.5904 45.7151 20.7377 46.4182C21.9102 47.1367 23.1885 47.4197 24.5601 47.5501C25.8721 47.6748 27.4875 47.6748 29.423 47.6747L33.1063 47.6748C35.8923 47.6748 38.2155 47.6749 40.0598 47.427C42.0064 47.1652 43.7639 46.5895 45.1762 45.1772C46.5885 43.7649 47.1643 42.0074 47.426 40.0607C47.6739 38.2165 47.6739 35.8933 47.6738 33.1074L47.6738 29.4245C47.6738 27.4889 47.6739 25.8731 47.5491 24.5611C47.4187 23.1894 47.1357 21.9112 46.4172 20.7387C45.7141 19.5913 44.7494 18.6267 43.6021 17.9236ZM29.2084 35.6465C29.7727 36.0468 30.5717 36.0468 32.1699 36.0468C33.7681 36.0468 34.5671 36.0468 35.1313 35.6465C35.3304 35.5052 35.5043 35.3314 35.6455 35.1323C36.0459 34.5681 36.0459 33.769 36.0459 32.1709C36.0459 30.5727 36.0459 29.7736 35.6455 29.2094C35.5043 29.0103 35.3304 28.8365 35.1313 28.6952C34.5671 28.2949 33.7681 28.2949 32.1699 28.2949C30.5717 28.2949 29.7727 28.2949 29.2084 28.6952C29.0093 28.8365 28.8355 29.0103 28.6943 29.2094C28.2939 29.7736 28.2939 30.5727 28.2939 32.1709C28.2939 33.769 28.2939 34.5681 28.6943 35.1323C28.8355 35.3314 29.0093 35.5052 29.2084 35.6465Z" fill="#F23936"/>
<path fill-rule="evenodd" clip-rule="evenodd" d="M40.0598 52.5737C42.0064 52.8354 43.7639 53.4111 45.1762 54.8234C46.5885 56.2358 47.1643 57.9933 47.426 59.9399C47.6739 61.7842 47.6739 64.1074 47.6738 66.8934L47.6738 70.5762C47.6738 72.5119 47.6739 74.1275 47.5491 75.4396C47.4187 76.8112 47.1357 78.0895 46.4172 79.2619C45.7141 80.4093 44.7494 81.374 43.6021 82.0771C42.4296 82.7956 41.1513 83.0786 39.7797 83.209C38.4676 83.3337 36.8519 83.3337 34.9163 83.3337H34.6888C31.7428 83.3337 29.367 83.3337 27.4544 83.1519C25.4821 82.9643 23.7636 82.5671 22.2184 81.6202C20.6538 80.6614 19.3383 79.3459 18.3795 77.7813C17.4326 76.236 17.0353 74.5176 16.8478 72.5452C16.666 70.6327 16.666 68.2568 16.666 65.3109V65.0834C16.666 63.1476 16.6659 61.5321 16.7907 60.22C16.9211 58.8484 17.2041 57.5701 17.9226 56.3976C18.6257 55.2503 19.5904 54.2856 20.7377 53.5825C21.9102 52.864 23.1885 52.581 24.5601 52.4506C25.8722 52.3258 27.4876 52.3259 29.4232 52.3259L33.1063 52.3259C35.8923 52.3258 38.2155 52.3257 40.0598 52.5737ZM32.1699 71.7057C30.5717 71.7057 29.7727 71.7057 29.2084 71.3054C29.0093 71.1642 28.8355 70.9903 28.6943 70.7912C28.2939 70.227 28.2939 69.4279 28.2939 67.8298C28.2939 66.2316 28.2939 65.4325 28.6943 64.8683C28.8355 64.6692 29.0093 64.4954 29.2084 64.3541C29.7726 63.9538 30.5717 63.9538 32.1699 63.9538C33.768 63.9538 34.5671 63.9538 35.1313 64.3541C35.3304 64.4954 35.5043 64.6692 35.6455 64.8683C36.0459 65.4325 36.0459 66.2316 36.0459 67.8298C36.0459 69.4279 36.0459 70.227 35.6455 70.7912C35.5043 70.9903 35.3304 71.1642 35.1313 71.3054C34.5671 71.7057 33.7681 71.7057 32.1699 71.7057Z" fill="#F23936"/>
<path d="M80.8668 56.0473C79.0473 60.589 74.8945 66.5195 70.9362 70.3945C70.3668 66.8112 67.5056 64.0057 63.8945 63.5057C67.7834 59.5334 73.7556 55.3251 78.3112 53.4918C79.1168 53.1862 79.9223 53.4223 80.4223 53.9223C80.9501 54.4501 81.2001 55.2418 80.8668 56.0473Z" fill="#FAB0AF"/>
<path d="M69.7125 71.5336C69.4347 71.7697 69.1569 72.0059 68.8791 72.2281L66.393 74.2142C66.393 74.1725 66.3791 74.117 66.3791 74.0614C66.1847 72.5753 65.4902 71.2003 64.3652 70.0753C63.2263 68.9364 61.8097 68.242 60.2541 68.0475C60.2125 68.0475 60.1569 68.0336 60.1152 68.0336L62.1291 65.492C62.3236 65.242 62.5319 65.0059 62.7541 64.7559L63.6986 64.8809C66.6847 65.2975 69.0875 67.6447 69.5597 70.617L69.7125 71.5336Z" fill="#FAB0AF"/>
<path d="M65.0609 75.0479C65.0609 76.5757 64.4775 78.034 63.3664 79.1312C62.5192 79.9923 61.3803 80.5757 59.9914 80.7423L56.5886 81.1173C54.7275 81.3257 53.1303 79.7284 53.3386 77.8534L53.7136 74.4368C54.047 71.3951 56.5886 69.4507 59.2831 69.3951C59.547 69.3812 59.8386 69.3951 60.1164 69.4229C61.297 69.5757 62.4359 70.1173 63.3942 71.0618C64.3248 71.9923 64.8525 73.0895 65.0053 74.2423C65.0331 74.5201 65.0609 74.784 65.0609 75.0479Z" fill="#FAB0AF"/>
</svg>
