<svg width="100" height="100" viewBox="0 0 100 100" fill="none" xmlns="http://www.w3.org/2000/svg">
<path fill-rule="evenodd" clip-rule="evenodd" d="M68.334 19.167C69.7147 19.167 70.834 20.2863 70.834 21.667V29.167H78.334C79.7147 29.167 80.834 30.2863 80.834 31.667C80.834 33.0477 79.7147 34.167 78.334 34.167H70.834V41.667C70.834 43.0477 69.7147 44.167 68.334 44.167C66.9533 44.167 65.834 43.0477 65.834 41.667V34.167H58.334C56.9533 34.167 55.834 33.0477 55.834 31.667C55.834 30.2863 56.9533 29.167 58.334 29.167H65.834V21.667C65.834 20.2863 66.9533 19.167 68.334 19.167Z" fill="#99D2FF"/>
<path d="M16.666 31.667C16.666 24.5959 16.666 21.0604 18.8627 18.8637C21.0594 16.667 24.5949 16.667 31.666 16.667C38.7371 16.667 42.2726 16.667 44.4693 18.8637C46.666 21.0604 46.666 24.5959 46.666 31.667C46.666 38.7381 46.666 42.2736 44.4693 44.4703C42.2726 46.667 38.7371 46.667 31.666 46.667C24.5949 46.667 21.0594 46.667 18.8627 44.4703C16.666 42.2736 16.666 38.7381 16.666 31.667Z" fill="#008EFF"/>
<path d="M53.334 68.333C53.334 61.2619 53.334 57.7264 55.5307 55.5297C57.7274 53.333 61.2629 53.333 68.334 53.333C75.4051 53.333 78.9406 53.333 81.1373 55.5297C83.334 57.7264 83.334 61.2619 83.334 68.333C83.334 75.4041 83.334 78.9396 81.1373 81.1363C78.9406 83.333 75.4051 83.333 68.334 83.333C61.2629 83.333 57.7274 83.333 55.5307 81.1363C53.334 78.9396 53.334 75.4041 53.334 68.333Z" fill="#008EFF"/>
<path d="M16.666 68.333C16.666 61.2619 16.666 57.7264 18.8627 55.5297C21.0594 53.333 24.5949 53.333 31.666 53.333C38.7371 53.333 42.2726 53.333 44.4693 55.5297C46.666 57.7264 46.666 61.2619 46.666 68.333C46.666 75.4041 46.666 78.9396 44.4693 81.1363C42.2726 83.333 38.7371 83.333 31.666 83.333C24.5949 83.333 21.0594 83.333 18.8627 81.1363C16.666 78.9396 16.666 75.4041 16.666 68.333Z" fill="#008EFF"/>
</svg>
