<svg width="100" height="100" viewBox="0 0 100 100" fill="none" xmlns="http://www.w3.org/2000/svg">
<path d="M83.334 26.667C83.334 32.1898 78.8568 36.667 73.334 36.667C67.8111 36.667 63.334 32.1898 63.334 26.667C63.334 21.1441 67.8111 16.667 73.334 16.667C78.8568 16.667 83.334 21.1441 83.334 26.667Z" fill="#A1DFCD"/>
<path fill-rule="evenodd" clip-rule="evenodd" d="M62.0393 16.7945C58.6327 16.667 54.6619 16.667 49.9993 16.667C34.2859 16.667 26.4291 16.667 21.5476 21.5485C16.666 26.4301 16.666 34.2868 16.666 50.0003C16.666 65.7138 16.666 73.5705 21.5476 78.4521C26.4291 83.3337 34.2859 83.3337 49.9993 83.3337C65.7128 83.3337 73.5696 83.3337 78.4511 78.4521C83.3327 73.5705 83.3327 65.7138 83.3327 50.0003C83.3327 45.3378 83.3327 41.367 83.2051 37.9604C80.5671 40.2684 77.1132 41.667 73.3327 41.667C65.0484 41.667 58.3327 34.9513 58.3327 26.667C58.3327 22.8864 59.7313 19.4326 62.0393 16.7945ZM68.2665 41.4131C69.3272 42.297 69.4705 43.8734 68.5866 44.9341L62.4904 52.2495C61.3955 53.5637 60.4085 54.7483 59.4865 55.5809C58.4834 56.4867 57.2199 57.2935 55.5549 57.2935C53.8899 57.2935 52.6264 56.4867 51.6233 55.5809C50.7013 54.7483 49.7143 53.5636 48.6194 52.2495L47.6447 51.0799C46.4087 49.5967 45.6497 48.6953 45.0245 48.1307C44.7345 47.8688 44.5625 47.7645 44.48 47.7246C44.4633 47.7165 44.4513 47.7116 44.4438 47.7088L44.4301 47.7143L44.4076 47.7246C44.3251 47.7645 44.1531 47.8688 43.8631 48.1307C43.2379 48.6953 42.4788 49.5967 41.2429 51.0799L35.2532 58.2675C34.3693 59.3281 32.7929 59.4715 31.7322 58.5875C30.6715 57.7036 30.5282 56.1272 31.4121 55.0665L37.5082 47.7512C38.6031 46.437 39.5902 45.2523 40.5122 44.4198C41.5153 43.5139 42.7788 42.7072 44.4438 42.7072C46.1088 42.7072 47.3723 43.5139 48.3754 44.4198C49.2974 45.2523 50.2844 46.437 51.3793 47.7512L52.354 48.9208C53.59 50.4039 54.349 51.3053 54.9742 51.87C55.2642 52.1318 55.4362 52.2362 55.5187 52.2761L55.5294 52.2811C55.5406 52.2863 55.5549 52.2919 55.5549 52.2919C55.5624 52.2891 55.5744 52.2842 55.5911 52.2761C55.6736 52.2362 55.8456 52.1318 56.1356 51.87C56.7608 51.3053 57.5199 50.4039 58.7558 48.9208L64.7455 41.7332C65.6294 40.6725 67.2058 40.5292 68.2665 41.4131Z" fill="#14B082"/>
</svg>
