<svg width="423" height="474" viewBox="0 0 423 474" fill="none" xmlns="http://www.w3.org/2000/svg">
<path d="M325.108 198.848C363.804 168.507 370.97 112.161 341.104 73.0937C330.311 58.9708 316.169 48.9363 300.653 43.2338C309.099 41.055 315.783 33.9356 316.958 24.7563C318.501 12.725 309.998 1.72369 297.968 0.18025C285.934 -1.36017 274.932 7.14303 273.392 19.1728C272.434 26.637 275.347 33.7022 280.564 38.3596C279.719 38.2527 278.876 38.1578 278.028 38.078C272.535 37.5495 267.634 34.5213 264.639 29.8865C263.784 28.5614 262.862 27.2604 261.88 25.9895C242.856 1.37735 207.481 -3.15658 182.868 15.8676C158.256 34.8887 153.722 70.2643 172.746 94.8794C173.73 96.1503 174.754 97.3685 175.826 98.5325C179.533 102.577 181.26 108.058 180.382 113.477C176.543 137.243 182.168 162.482 198.056 183.034C228.653 222.626 285.667 229.777 325.108 198.848Z" fill="#FCF6A6"/>
<path d="M322.663 34.9295C322.004 40.0597 325.631 44.7563 330.761 45.4128C335.893 46.0694 340.588 42.4419 341.245 37.3102C341.903 32.1799 338.275 27.4879 333.144 26.8299C328.012 26.1703 323.32 29.7978 322.663 34.9295Z" fill="#FCF6A6"/>
<path d="M81.2006 57.2119C143.208 28.5913 200.75 98.0505 227.21 166.471C253.666 234.892 328.995 250.955 359.719 253.978C390.445 257.003 437.745 278.935 418.555 345.291C399.365 411.647 270.89 528.172 112.405 444.137C-46.0824 360.103 -18.4406 103.206 81.2006 57.2119Z" fill="#FCF6A6"/>
<path d="M117.76 399.355L117.579 398.739L113.041 383.29L114.526 381.715L117.828 386.899L186.951 69.3593C189.192 59.0627 200.246 52.7233 211.636 55.2019L380.265 91.9131C383.537 92.6253 386.467 94.0031 388.947 95.8281L391.552 89.8998L395.868 104.581C397.196 107.855 397.617 111.452 396.831 115.047L327.062 435.553C324.82 445.849 313.769 452.19 302.376 449.707L133.75 413C125.961 411.305 120.037 405.929 117.778 399.405H117.772L117.76 399.355Z" fill="#3D3695"/>
<path d="M131.869 391.624L300.071 428.24C309.452 430.281 318.711 424.333 320.751 414.952L387.825 106.828C389.87 97.4482 383.919 88.186 374.539 86.1457L206.337 49.5309C196.959 47.4905 187.699 53.4369 185.658 62.8165L118.584 370.943C116.54 380.325 122.488 389.584 131.869 391.624Z" fill="white"/>
<path d="M138.193 391.29C126.8 388.815 119.38 378.453 121.624 368.157L187.621 64.9866C189.865 54.69 200.915 48.3522 212.307 50.8322L229.388 54.5485L229.708 61.8124C229.803 64.032 231.128 65.8178 232.978 66.2199L283.951 77.3176L334.925 88.4137C336.775 88.8158 338.721 87.7452 339.734 85.762L343.043 79.2871L367.28 84.5664C378.673 87.045 386.09 97.4033 383.85 107.703L317.852 410.873C315.609 421.169 304.558 427.506 293.166 425.027L138.193 391.29ZM129.481 398.474L298.107 435.182C309.5 437.658 320.551 431.325 322.793 421.028L392.562 100.52C394.806 90.2222 387.385 79.8639 375.992 77.3838L207.366 40.6771C195.973 38.1971 184.923 44.535 182.679 54.8316L112.911 375.338C110.67 385.634 118.085 395.993 129.481 398.474Z" fill="#6D4C9F"/>
<path d="M302.899 127.748L334.349 134.352L327.745 165.802L296.295 159.201L302.899 127.748ZM289.693 163.51L332.056 172.404L340.951 130.041L298.587 121.146L289.693 163.51Z" fill="#221E1F"/>
<path d="M308.38 136.034L326.326 139.803L322.559 157.749L304.611 153.982L308.38 136.034Z" fill="#221E1F"/>
<path d="M218.092 109.942L249.542 116.546L242.941 147.996L211.488 141.392L218.092 109.942ZM204.887 145.704L247.249 154.597L256.144 112.235L213.78 103.34L204.887 145.704Z" fill="#221E1F"/>
<path d="M223.574 118.229L241.52 121.997L237.752 139.944L219.805 136.176L223.574 118.229Z" fill="#221E1F"/>
<path d="M224.855 234.15L193.405 227.546L200.005 196.096L231.457 202.697L224.855 234.15ZM238.056 198.387L195.697 189.491L186.801 231.855L229.163 240.751L238.056 198.387Z" fill="#221E1F"/>
<path d="M219.663 226.097L201.717 222.325L205.481 204.379L223.429 208.146L219.663 226.097Z" fill="#221E1F"/>
<path d="M309.659 251.956L278.207 245.352L284.812 213.899L316.263 220.503L309.659 251.956ZM322.863 216.19L280.501 207.3L271.607 249.663L313.97 258.557L322.863 216.19Z" fill="#221E1F"/>
<path d="M304.469 243.9L286.523 240.134L290.291 222.188L308.238 225.952L304.469 243.9Z" fill="#221E1F"/>
<path d="M284.034 130.922L290.1 132.194L288.827 138.263L282.76 136.989L284.034 130.922Z" fill="#221E1F"/>
<path d="M271.747 129.117L271.903 128.374L274.398 116.495L280.465 117.768L277.972 129.648L277.815 130.391L276.698 135.715L270.631 134.441L271.747 129.117Z" fill="#221E1F"/>
<path d="M258.533 131.686L264.599 132.959L262.004 145.324L255.938 144.05L258.533 131.686Z" fill="#221E1F"/>
<path d="M252.059 162.522L258.123 163.795L256.85 169.863L250.785 168.589L252.059 162.522Z" fill="#221E1F"/>
<path d="M203.444 152.318L209.514 153.592L208.238 159.659L202.17 158.385L203.444 152.318Z" fill="#221E1F"/>
<path d="M213.038 166.999L206.971 165.726L208.245 159.659L213.962 160.859L215.234 154.792L221.3 156.064L220.026 162.133L214.311 160.933L213.038 166.999Z" fill="#221E1F"/>
<path d="M288.444 170.16L294.508 171.434L293.234 177.504L287.17 176.228L288.444 170.16Z" fill="#221E1F"/>
<path d="M298.032 184.841L291.965 183.569L293.239 177.503L298.956 178.704L300.23 172.637L306.297 173.911L305.023 179.977L299.306 178.777L298.032 184.841Z" fill="#221E1F"/>
<path d="M322.108 189.9L303.746 186.042L305.02 179.978L317.185 182.532L318.459 176.463L330.855 179.067L329.581 185.134L323.382 183.833L322.108 189.9Z" fill="#221E1F"/>
<path d="M307.379 199.564L301.183 198.26L295.467 197.062L294.193 203.126L288.129 201.852L289.401 195.789L295.116 196.986L296.39 190.922L302.457 192.196L314.852 194.798L313.578 200.862L325.744 203.418L324.47 209.482L306.107 205.627L307.379 199.564Z" fill="#221E1F"/>
<path d="M282.154 200.601L263.877 196.761L263.791 196.746L257.809 195.487L260.421 183.059L266.485 184.332L265.151 190.694L271.215 191.968L272.489 185.902L290.674 189.719L289.4 195.789L283.428 194.534L282.154 200.601Z" fill="#221E1F"/>
<path d="M254.581 150.506L260.649 151.78L259.375 157.849L253.309 156.575L254.581 150.506Z" fill="#221E1F"/>
<path d="M262.259 113.947L268.326 115.221L265.674 127.843L259.607 126.57L262.259 113.947Z" fill="#221E1F"/>
<path d="M270.821 224.004L264.754 222.73L266.026 216.663L272.095 217.937L270.821 224.004Z" fill="#221E1F"/>
<path d="M259.811 216.133L253.744 214.859L256.396 202.236L262.46 203.51L259.811 216.133Z" fill="#221E1F"/>
<path d="M244.012 231.013L250.086 232.287L252.67 219.975L258.737 221.248L253.569 245.873L248.293 244.766L248.281 244.82L241.351 243.362L241.377 243.25L235.373 241.988L236.647 235.921L242.649 237.183L243.935 231.054L237.936 229.792L240.529 217.428L246.599 218.701L244.012 231.013Z" fill="#221E1F"/>
<path d="M265.686 248.473L259.619 247.199L263.501 228.705L269.568 229.979L265.686 248.473Z" fill="#221E1F"/>
<path d="M247.672 213.585L241.604 212.311L244.252 199.69L250.321 200.962L247.672 213.585Z" fill="#221E1F"/>
<path d="M277.649 161.323L283.713 162.595L279.828 181.11L273.76 179.836L277.649 161.323Z" fill="#221E1F"/>
<path d="M278.875 155.487L272.811 154.214L267.698 178.567L261.631 177.293L269.407 140.256L275.472 141.527L275.475 141.53L281.536 142.801L278.875 155.487Z" fill="#221E1F"/>
<path d="M237.041 172.128L255.557 176.016L254.552 180.809L254.283 182.083L251.738 194.215L245.671 192.941L248.219 180.809L235.768 178.195L237.041 172.128Z" fill="#221E1F"/>
<path d="M212.213 173.251L210.94 179.312L216.184 180.413L217.455 174.349L223.173 175.549L224.465 169.397L218.747 168.196L220.021 162.133L232.189 164.685L233.462 158.618L245.857 161.22L244.583 167.289L238.386 165.988L237.112 172.054L230.528 170.671L229.236 176.823L223.522 175.623L222.248 181.687L235.288 184.424L234.014 190.491L196.982 182.715L198.256 176.655V176.649L199.53 170.588L212.213 173.251Z" fill="#221E1F"/>
<path d="M360.945 148.457C362.713 148.829 364.44 147.697 364.815 145.932L371.6 113.601C371.972 111.836 370.84 110.105 369.075 109.734L336.836 102.964C335.071 102.592 333.34 103.725 332.969 105.489C332.597 107.257 333.727 108.987 335.494 109.359L364.535 115.458L358.419 144.587C358.048 146.355 359.181 148.085 360.945 148.457Z" fill="#46C8F5"/>
<path d="M188.131 112.174C189.896 112.545 191.628 111.413 192.001 109.648L198.114 80.5143L227.158 86.6127C228.923 86.9847 230.655 85.8508 231.025 84.0875C231.397 82.3197 230.265 80.588 228.5 80.2176L196.261 73.4506C194.496 73.0787 192.766 74.211 192.391 75.9758L185.606 108.307C185.234 110.071 186.366 111.802 188.131 112.174Z" fill="#46C8F5"/>
<path d="M299.3 281.745L331.539 288.512C333.307 288.884 335.037 287.752 335.409 285.987L342.194 253.656C342.569 251.892 341.437 250.161 339.672 249.789C337.904 249.418 336.172 250.55 335.802 252.315L329.686 281.449L300.645 275.35C298.877 274.978 297.145 276.111 296.775 277.875C296.406 279.64 297.535 281.375 299.3 281.745Z" fill="#46C8F5"/>
<path d="M158.721 252.229L190.96 258.999C192.728 259.368 194.459 258.238 194.83 256.47C195.199 254.706 194.069 252.976 192.305 252.604L163.261 246.505L169.377 217.376C169.748 215.608 168.618 213.878 166.854 213.506C165.086 213.134 163.356 214.266 162.984 216.031L156.196 248.362C155.824 250.127 156.958 251.861 158.721 252.229Z" fill="#46C8F5"/>
<mask id="mask0_54_56144" style="mask-type:luminance" maskUnits="userSpaceOnUse" x="0" y="50" width="423" height="424">
<path d="M81.2006 57.2119C143.208 28.5913 200.75 98.0505 227.21 166.471C253.666 234.892 328.995 250.955 359.719 253.978C390.445 257.003 437.745 278.935 418.555 345.291C399.365 411.647 270.89 528.172 112.405 444.137C-46.0824 360.103 -18.4406 103.206 81.2006 57.2119Z" fill="white"/>
</mask>
<g mask="url(#mask0_54_56144)">
<path d="M140.388 191.563C139.492 189.494 138.543 187.64 137.568 185.901C128.595 169.878 116.453 167.336 103.844 171.081C101.91 171.658 99.9604 172.376 98.0119 173.219C81.9993 180.152 71.9919 192.631 82.4014 216.672C92.8109 240.713 119.703 267.214 135.714 260.281C136.214 260.063 136.699 259.817 137.166 259.542C151.66 251.004 150.472 214.853 140.388 191.563Z" fill="#F39452"/>
<path d="M144.204 202.534C143.13 198.691 141.868 194.978 140.39 191.563C139.494 189.494 138.545 187.64 137.569 185.901C128.596 169.878 116.455 167.336 103.846 171.081C101.912 171.658 99.9621 172.376 98.0136 173.219C82.8684 179.779 73.1184 191.314 80.9168 212.885C81.1201 212.923 116.041 218.762 144.204 202.534Z" fill="#E03B47"/>
<path d="M111.229 213.03C111.229 213.03 159.211 238.67 179.429 220.217C199.65 201.76 144.207 202.534 144.207 202.534L111.229 213.03Z" fill="#F7CE40"/>
<path d="M99.001 235.196C95.7199 230.522 94.9956 225.381 97.3763 223.713C99.7464 222.046 104.303 224.455 107.578 229.086C107.442 221.92 105.816 216.544 104.675 213.638C91.076 214.555 81.0264 212.903 80.918 212.885C81.3637 214.123 81.8395 215.371 82.4042 216.672C87.1881 227.72 95.4564 239.281 104.542 247.882H104.545C105.355 245.499 105.958 243.208 106.422 240.999C104.08 240.493 101.24 238.388 99.001 235.196Z" fill="#333333"/>
<path d="M297.253 336.073C252.833 303.313 203.725 271.207 200.953 269.396L200.822 269.31C196.642 266.569 191.353 265.511 186.078 266.885C186.078 266.885 151.35 267.781 114.13 277.495C78.1539 286.888 46.1905 303.399 46.1905 303.399C39.2036 305.226 34.355 310.74 32.8943 317.155C32.8898 317.161 10.8435 362.515 -3.42383 418.026C11.1688 414.777 46.2808 409.887 71.673 430.197L78.1163 416.936L121.656 504.02C121.656 504.02 190.233 500.878 236.795 473.969L219.373 353.923C228.503 363.881 240.722 377.207 252.875 390.476C263.66 376.215 281.978 352.619 297.253 336.073Z" fill="#14B082"/>
<path d="M297.25 336.074C281.975 352.619 263.658 376.215 252.873 390.476C276.098 415.829 299.039 440.929 299.518 441.666C300.497 443.167 366.651 396.474 366.651 396.474C358.339 383.225 328.991 359.487 297.25 336.074Z" fill="#E07B52"/>
<path d="M193.488 359.981L166.229 362.417C162.43 362.755 159.076 359.949 158.734 356.153L153.711 299.938C153.374 296.136 156.176 292.784 159.975 292.443L187.236 290.007C191.032 289.67 194.387 292.47 194.727 296.271L199.751 352.49C200.091 356.286 197.287 359.641 193.488 359.981Z" fill="#514991"/>
<path d="M78.1148 416.936C78.1148 416.936 95.7491 377.296 50.4609 317.989C50.4609 317.989 102.277 360.061 88.0214 435.561L78.1148 416.936Z" fill="#0B8C66"/>
<path d="M201.398 278.59C201.398 278.59 213.71 314.939 219.37 353.924L229.451 364.919C229.451 364.919 221.281 310.661 201.398 278.59Z" fill="#0B8C66"/>
<path d="M188.301 336.556C187.816 334.696 181.04 334.475 181.04 334.475C181.04 334.475 183.005 332.466 182.468 331.364C181.93 330.259 162.465 328.126 151.131 333.321C151.131 333.321 87.1405 413.223 71.6715 430.198C46.2793 409.888 11.1673 414.777 -3.42531 418.027C-8.12037 436.292 -11.9752 455.661 -13.9207 474.875C-21.7779 552.476 36.0776 567.699 91.2784 527.877C146.475 488.056 159.686 356.94 159.686 356.94C159.686 356.94 186.399 350.24 185.436 347.509C184.475 344.771 182.145 345.38 182.145 345.38C182.145 345.38 188.372 343.508 187.715 341.936C187.056 340.365 184.422 339.81 184.422 339.81C184.422 339.81 188.789 338.421 188.301 336.556Z" fill="#F39452"/>
<path d="M71.6722 430.198C71.6722 430.198 47.9515 451.28 23.1797 469.372L66.2453 426.322L71.6722 430.198Z" fill="#E07B52"/>
</g>
<mask id="mask1_54_56144" style="mask-type:luminance" maskUnits="userSpaceOnUse" x="0" y="50" width="423" height="424">
<path d="M81.2006 57.2119C143.208 28.5913 200.75 98.0505 227.21 166.471C253.666 234.892 328.995 250.955 359.719 253.978C390.445 257.003 437.745 278.935 418.555 345.291C399.365 411.647 270.89 528.172 112.405 444.137C-46.0824 360.103 -18.4406 103.206 81.2006 57.2119Z" fill="white"/>
</mask>
<g mask="url(#mask1_54_56144)">
<path fill-rule="evenodd" clip-rule="evenodd" d="M184.412 348.822C184.965 348.467 185.317 348.132 185.423 347.834C185.447 347.769 185.456 347.709 185.456 347.647C185.462 347.991 185.084 348.39 184.412 348.822Z" fill="url(#paint0_linear_54_56144)"/>
<path fill-rule="evenodd" clip-rule="evenodd" d="M171.466 353.684C177.987 351.728 184.887 349.341 185.425 347.834C185.319 348.132 184.967 348.467 184.414 348.822C184.411 348.825 184.411 348.825 184.408 348.83C184.405 348.83 184.402 348.83 184.402 348.833C182.158 350.277 176.689 352.118 171.466 353.684ZM164.378 348.458C163.131 348.458 161.952 347.967 161.278 346.453C161.121 346.107 161.032 345.773 160.996 345.457C161.032 345.773 161.121 346.107 161.278 346.45C161.952 347.964 163.131 348.455 164.378 348.455C166.694 348.455 169.248 346.755 169.248 346.755L169.245 346.761C169.112 346.846 166.634 348.458 164.378 348.458Z" fill="url(#paint1_linear_54_56144)"/>
<path fill-rule="evenodd" clip-rule="evenodd" d="M182.143 345.377C182.143 345.377 187.798 343.677 187.762 342.158V342.179C187.755 343.624 182.63 345.23 182.176 345.371C182.155 345.374 182.143 345.377 182.143 345.377Z" fill="url(#paint2_linear_54_56144)"/>
<path fill-rule="evenodd" clip-rule="evenodd" d="M184.424 339.807H184.418C184.418 339.807 188.414 338.536 188.335 336.795V336.857C188.319 338.536 184.563 339.763 184.424 339.807Z" fill="url(#paint3_linear_54_56144)"/>
<path fill-rule="evenodd" clip-rule="evenodd" d="M165.11 340.777C164.094 340.777 162.998 340.227 162.326 338.125C162.21 337.756 162.157 337.398 162.154 337.047C162.157 337.398 162.213 337.756 162.326 338.122C162.995 340.224 164.094 340.777 165.11 340.777C165.128 340.777 165.146 340.777 165.167 340.774C165.164 340.777 165.164 340.777 165.161 340.777H165.11ZM181.037 334.472C181.037 334.472 182.866 332.603 182.51 331.48C182.544 331.582 182.556 331.689 182.556 331.799C182.553 332.898 181.102 334.409 181.037 334.472Z" fill="url(#paint4_linear_54_56144)"/>
</g>
<mask id="mask2_54_56144" style="mask-type:luminance" maskUnits="userSpaceOnUse" x="0" y="50" width="423" height="424">
<path d="M81.2006 57.2119C143.208 28.5913 200.75 98.0505 227.21 166.471C253.666 234.892 328.995 250.955 359.719 253.978C390.445 257.003 437.745 278.935 418.555 345.291C399.365 411.647 270.89 528.172 112.405 444.137C-46.0824 360.103 -18.4406 103.206 81.2006 57.2119Z" fill="white"/>
</mask>
<g mask="url(#mask2_54_56144)">
<path fill-rule="evenodd" clip-rule="evenodd" d="M107.555 441.476C128.944 401.006 146.972 356.581 158.041 356.581C158.609 356.581 159.158 356.7 159.688 356.939C159.158 356.7 158.609 356.584 158.041 356.584C146.972 356.584 128.944 401.006 107.555 441.476Z" fill="url(#paint5_linear_54_56144)"/>
</g>
<mask id="mask3_54_56144" style="mask-type:luminance" maskUnits="userSpaceOnUse" x="0" y="50" width="423" height="424">
<path d="M81.2006 57.2119C143.208 28.5913 200.75 98.0505 227.21 166.471C253.666 234.892 328.995 250.954 359.719 253.978C390.445 257.003 437.745 278.935 418.555 345.291C399.365 411.647 270.89 528.172 112.405 444.137C-46.0824 360.103 -18.4406 103.206 81.2006 57.2119Z" fill="white"/>
</mask>
<g mask="url(#mask3_54_56144)">
<path d="M344.264 461.841C285.881 496.823 201.035 346.143 201.035 346.143C201.035 346.143 174.459 353.359 173.961 350.501C173.464 347.644 175.793 347.036 175.793 347.036C175.793 347.036 169.443 348.446 169.25 346.755C169.058 345.064 171.086 343.293 171.086 343.293C171.086 343.293 166.599 344.213 166.111 342.35C165.626 340.484 171.426 336.98 171.426 336.98C171.426 336.98 168.732 336.191 168.665 334.967C168.591 333.738 184.53 322.362 196.96 321.359C196.96 321.359 291.834 359.792 313.63 367.042C313.63 367.042 436.733 406.438 344.264 461.841Z" fill="#F39452"/>
</g>
<defs>
<linearGradient id="paint0_linear_54_56144" x1="160.69" y1="344.41" x2="177.951" y2="339.904" gradientUnits="userSpaceOnUse">
<stop stop-color="#47327A"/>
<stop offset="1" stop-color="#47327A"/>
</linearGradient>
<linearGradient id="paint1_linear_54_56144" x1="160.692" y1="344.41" x2="177.953" y2="339.905" gradientUnits="userSpaceOnUse">
<stop stop-color="#D66546"/>
<stop offset="1" stop-color="#D66546"/>
</linearGradient>
<linearGradient id="paint2_linear_54_56144" x1="160.694" y1="344.41" x2="177.955" y2="339.905" gradientUnits="userSpaceOnUse">
<stop stop-color="#D66546"/>
<stop offset="1" stop-color="#D66546"/>
</linearGradient>
<linearGradient id="paint3_linear_54_56144" x1="160.693" y1="344.41" x2="177.954" y2="339.905" gradientUnits="userSpaceOnUse">
<stop stop-color="#D66546"/>
<stop offset="1" stop-color="#D66546"/>
</linearGradient>
<linearGradient id="paint4_linear_54_56144" x1="160.694" y1="344.41" x2="177.955" y2="339.905" gradientUnits="userSpaceOnUse">
<stop stop-color="#D66546"/>
<stop offset="1" stop-color="#D66546"/>
</linearGradient>
<linearGradient id="paint5_linear_54_56144" x1="87.904" y1="396.783" x2="43.0007" y2="595.296" gradientUnits="userSpaceOnUse">
<stop stop-color="#D66546"/>
<stop offset="1" stop-color="#D66546"/>
</linearGradient>
</defs>
</svg>
