<svg width="55" height="55" viewBox="0 0 55 55" fill="none" xmlns="http://www.w3.org/2000/svg">
<g clip-path="url(#clip0_51_30723)">
<path d="M51.1569 18.2008C48.5953 15.6393 45.2291 14.3574 41.8617 14.3574C38.4954 14.3574 35.1291 15.6393 32.5642 18.2008L18.2425 32.5257C16.8995 33.8677 15.1137 34.6069 13.2129 34.6069C11.3133 34.6069 9.52859 33.8676 8.18549 32.5257V32.5246C5.41444 29.7514 5.41444 25.2408 8.18549 22.4697C10.9576 19.6976 15.4683 19.6976 18.2415 22.4686L20.99 25.2171L25.2212 20.9859L22.4362 18.2009C17.3088 13.0767 8.96763 13.0767 3.8435 18.2009C-1.2817 23.325 -1.28063 31.6662 3.8435 36.7946C6.32548 39.2756 9.62634 40.6434 13.1376 40.6434C16.6523 40.6434 19.9541 39.2756 22.4361 36.7946L36.7589 22.4697C39.5321 19.6976 44.0427 19.6976 46.8148 22.4697C49.5859 25.2408 49.5859 29.7514 46.8148 32.5246C45.4717 33.8677 43.687 34.6069 41.7874 34.6069C39.8867 34.6069 38.1009 33.8676 36.7589 32.5257L34.0104 29.7761L29.7791 34.0084L32.5641 36.7945C35.0461 39.2755 38.3481 40.6433 41.8627 40.6433C45.3741 40.6433 48.6748 39.2755 51.1568 36.7945C56.2811 31.6672 56.2811 23.3261 51.1569 18.2008Z" fill="#14B082"/>
</g>
<defs>
<clipPath id="clip0_51_30723">
<rect width="55" height="55" fill="white"/>
</clipPath>
</defs>
</svg>
