<svg width="48" height="48" viewBox="0 0 48 48" fill="none" xmlns="http://www.w3.org/2000/svg">
<g clip-path="url(#clip0_51_31001)">
<path d="M47.9796 10.1579C47.9345 9.94426 48.1525 10.4605 43.1948 0.520375C43.0354 0.201411 42.7094 0 42.353 0H5.64721C5.2907 0 4.96486 0.201411 4.80543 0.520281C-0.202658 10.5386 0.0828001 9.95509 0.0497649 10.0531C0.0181414 10.1471 0.00760024 10.2141 0.00270613 10.3004C-0.00143504 10.3751 0.000541426 16.2019 7.08387e-05 18.353C7.08387e-05 20.1921 1.17861 21.7603 2.81983 22.3441V47.0587C2.81983 47.5785 3.24119 47.9999 3.761 47.9999H44.239C44.7589 47.9999 45.1802 47.5785 45.1802 47.0587V22.3441C46.8333 21.7537 48 20.1625 48 18.353V10.353C48.0001 10.245 47.977 10.1459 47.9796 10.1579ZM6.22886 1.88235H41.7714L45.5361 9.41175C39.5078 9.41175 8.38791 9.41175 2.46416 9.41175L6.22886 1.88235ZM39.5295 18.3529C39.5295 19.6503 38.474 20.7058 37.1766 20.7058C35.8792 20.7058 34.8236 19.6503 34.8236 18.3529C34.8236 16.2094 34.8236 13.4211 34.8236 11.2941H39.5295V18.3529ZM26.3531 18.3529C26.3531 19.6503 25.2975 20.7058 24.0001 20.7058C22.7027 20.7058 21.6472 19.6503 21.6472 18.3529V11.2941H26.3531V18.3529ZM19.7648 18.3529C19.7648 19.6503 18.7093 20.7058 17.4119 20.7058C16.1145 20.7058 15.059 19.6503 15.059 18.3529V11.2941H19.7648V18.3529ZM13.1766 18.3529C13.1766 19.6503 12.1211 20.7058 10.8237 20.7058C9.52627 20.7058 8.47074 19.6503 8.47074 18.3529V11.2941H13.1766V18.3529ZM28.2354 11.2941H32.9413V18.3529C32.9413 19.6503 31.8858 20.7058 30.5883 20.7058C29.2909 20.7058 28.2354 19.6503 28.2354 18.3529V11.2941ZM1.88251 18.3529V11.2941H6.58839V18.3529C6.58839 19.6503 5.53286 20.7058 4.23545 20.7058C2.93804 20.7058 1.88251 19.6504 1.88251 18.3529ZM8.47074 46.1176V30.1176H19.7648V46.1176H8.47074ZM21.6472 46.1176V29.1764C21.6472 28.6567 21.2258 28.2352 20.706 28.2352H7.52956C7.00975 28.2352 6.58839 28.6567 6.58839 29.1764V46.1176H4.70227V22.5619C5.841 22.4365 6.84476 21.8579 7.52956 21.0109C9.22989 23.1142 12.4178 23.1136 14.1178 21.0109C15.8181 23.1142 19.0061 23.1136 20.706 21.0109C22.4063 23.1142 25.5943 23.1136 27.2942 21.0109C28.9946 23.1142 32.1825 23.1136 33.8825 21.0109C35.5828 23.1142 38.7707 23.1136 40.4707 21.0109C41.1555 21.8579 42.1592 22.4365 43.298 22.5619V46.1176H21.6472ZM46.1177 18.3529C46.1177 19.5162 45.2511 20.5178 44.1041 20.6821C42.6663 20.8844 41.4119 19.7709 41.4119 18.3529C41.4119 16.2094 41.4119 13.4211 41.4119 11.2941H46.1177V18.3529Z" fill="#14B082"/>
<path d="M40.4704 28.2354H24.4705C23.9507 28.2354 23.5293 28.6568 23.5293 29.1765V41.4118C23.5293 41.9316 23.9507 42.353 24.4705 42.353H40.4704C40.9902 42.353 41.4116 41.9316 41.4116 41.4118V29.1765C41.4116 28.6568 40.9902 28.2354 40.4704 28.2354ZM39.5293 40.4706H25.4116V30.1177H39.5293V40.4706Z" fill="#14B082"/>
</g>
<defs>
<clipPath id="clip0_51_31001">
<rect width="48" height="48" fill="white"/>
</clipPath>
</defs>
</svg>
