<svg width="48" height="48" viewBox="0 0 48 48" fill="none" xmlns="http://www.w3.org/2000/svg">
<path d="M41.2798 12.9897L29.0508 0.282937C28.8768 0.102187 28.6368 0 28.3858 0H10.16C8.12031 0 6.46094 1.65497 6.46094 3.68916V44.3108C6.46094 46.345 8.12022 48 10.16 48H37.8388C39.8785 48 41.5379 46.345 41.5379 44.3108V13.6298C41.5379 13.3912 41.4454 13.1618 41.2798 12.9897ZM28.6148 2.49225L38.6535 12.9231H28.6148V2.49225ZM39.6918 44.3108C39.6918 45.3271 38.8607 46.1539 37.8389 46.1539H10.16C9.13825 46.1539 8.30716 45.3272 8.30716 44.3108V3.68916C8.30716 2.67291 9.13825 1.84612 10.16 1.84612H26.7687V13.8461C26.7687 14.3559 27.182 14.7692 27.6918 14.7692H39.6918V44.3108Z" fill="#14B082"/>
<path d="M35.954 30.435C35.014 29.5437 33.342 29.0866 31.2488 29.1466C30.5539 29.1666 29.819 29.2452 29.0513 29.38C27.3118 27.292 25.6229 24.3927 24.4881 21.7237C25.6509 17.971 26.0757 15.5189 25.0156 14.3672C24.6623 13.9834 23.9997 13.5865 22.8533 13.8735C22.1301 14.0542 20.9665 14.7605 21.2987 17.4594C21.4456 18.6518 21.8822 20.171 22.5293 21.8063C22.1814 22.8963 21.794 24.0363 21.4129 25.1568C21.0539 26.2125 20.6827 27.3038 20.3521 28.3326H20.3519C20.0869 29.1579 19.844 29.9383 19.6146 30.6759C19.293 31.7098 19.0016 32.6466 18.7156 33.495C13.7802 36.2973 11.8088 38.7243 11.688 40.2172C11.6389 40.824 11.876 41.3512 12.3384 41.6635C12.5704 41.8203 12.9032 41.9526 13.3657 41.9526C13.8306 41.9526 14.4264 41.8186 15.1823 41.4408C17.8463 40.1087 19.1037 37.9062 20.2256 34.7677C21.1733 34.2493 22.2473 33.707 23.4638 33.1456C25.3823 32.2603 27.0164 31.7133 28.3891 31.3921C29.9766 33.0592 31.6554 34.1537 33.2309 34.1537C34.9448 34.1537 36.1536 33.5874 36.5473 32.6001C36.8377 31.8721 36.6158 31.0627 35.954 30.435ZM14.3566 39.7895C14.0273 39.9543 13.7837 40.0341 13.6145 40.0723C13.8975 39.4511 14.9326 38.1182 17.5839 36.3537C16.8017 37.9395 15.8545 39.0406 14.3566 39.7895ZM23.3009 15.6645C23.4578 15.6254 23.5578 15.6198 23.6112 15.6198C23.6423 15.62 23.6586 15.622 23.6592 15.6198C23.6923 15.6603 24.0293 16.1527 23.4231 18.693C23.2853 18.1697 23.186 17.679 23.1312 17.2338C22.9949 16.1255 23.1907 15.6921 23.3009 15.6645ZM22.6904 31.4694C22.1205 31.7324 21.576 31.9936 21.0568 32.2523C21.1618 31.9179 21.2684 31.5751 21.3777 31.2243C21.6053 30.4921 21.8465 29.717 22.1099 28.8977H22.1097C22.4358 27.8837 22.8045 26.7997 23.1608 25.7514C23.3289 25.2574 23.491 24.7787 23.6465 24.3147C24.6007 26.2479 25.7761 28.1926 27.0571 29.8374C25.6665 30.2258 24.1989 30.773 22.6904 31.4694ZM33.231 32.3074C32.4458 32.3074 31.5552 31.8283 30.6355 31.0281C32.7783 30.8528 33.9131 31.314 34.2316 31.4729C34.6249 31.6692 34.7753 31.8594 34.8155 31.9371C34.7166 32.045 34.2875 32.3074 33.231 32.3074Z" fill="#14B082"/>
</svg>
