<svg width="48" height="48" viewBox="0 0 48 48" fill="none" xmlns="http://www.w3.org/2000/svg">
<path d="M44 34V10C44 7.794 42.205 6 39.9999 6H3.99994C1.79494 6 0 7.79391 0 10V34C0 36.2061 1.79494 38.0001 4.00003 38.0001H40C42.2051 38 44 36.2061 44 34ZM1.99997 34V10C1.99997 8.89753 2.8965 8.00006 3.99994 8.00006H39.9999C41.1035 8.00006 41.9999 8.89753 41.9999 10V34C41.9999 35.1025 41.1034 36 39.9999 36H3.99994C2.8965 36 1.99997 35.1025 1.99997 34Z" fill="#14B082"/>
<path d="M47 13C46.4473 13 46 13.4473 46 14V38C46 39.1025 45.1035 40 44 40H8.00003C7.44728 40 7 40.4473 7 41C7 41.5528 7.44728 42.0001 8.00003 42.0001H44C46.2051 42 48.0001 40.2061 48.0001 37.9999V13.9999C48.0001 13.4473 47.5528 13 47 13Z" fill="#14B082"/>
<path d="M37 28H25C24.4473 28 24 28.4473 24 29C24 29.5528 24.4473 30.0001 25 30.0001H37C37.5528 30.0001 38.0001 29.5528 38.0001 29C38 28.4473 37.5528 28 37 28Z" fill="#14B082"/>
<path d="M37 22H25C24.4473 22 24 22.4473 24 23C24 23.5528 24.4473 24.0001 25 24.0001H37C37.5528 24.0001 38.0001 23.5528 38.0001 23C38 22.4473 37.5528 22 37 22Z" fill="#14B082"/>
<path d="M37 16H25C24.4473 16 24 16.4473 24 17C24 17.5528 24.4473 18.0001 25 18.0001H37C37.5528 18.0001 38.0001 17.5528 38.0001 17C38 16.4473 37.5528 16 37 16Z" fill="#14B082"/>
<path d="M14 22.0001C16.2051 22.0001 18.0001 20.2061 18.0001 18C18.0001 15.794 16.2051 14 14 14C11.7949 14 10 15.7939 10 18C10 20.2062 11.795 22.0001 14 22.0001ZM14 16.0001C15.1036 16.0001 16 16.8975 16 18C16 19.1025 15.1035 20 14 20C12.8966 20 12.0001 19.1025 12.0001 18C12.0001 16.8975 12.8966 16.0001 14 16.0001Z" fill="#14B082"/>
<path d="M19.9747 24.4737C18.5762 23.8018 16.4062 23 14.0001 23C11.5938 23 9.42384 23.8018 8.02547 24.4737C6.77541 25.0753 6 26.2754 6 27.6055V28.0625C6 29.1309 6.89653 30 7.99997 30H20C21.1035 30 21.9999 29.1309 21.9999 28.0625V27.6055C22 26.2754 21.2246 25.0753 19.9747 24.4737ZM20 28.0001L7.99997 28.0626V27.6056C7.99997 27.0508 8.34178 26.5411 8.89256 26.2765C10.1035 25.6945 11.9707 25.0001 14 25.0001C16.0293 25.0001 17.8965 25.6944 19.1074 26.2765C19.6582 26.5411 20 27.0508 20 27.6056V28.0001Z" fill="#14B082"/>
</svg>
