<svg width="48" height="48" viewBox="0 0 48 48" fill="none" xmlns="http://www.w3.org/2000/svg">
<path d="M17.25 9H18.75V10.5H17.25V9Z" fill="#14B082"/>
<path d="M20.25 9H21.75V10.5H20.25V9Z" fill="#14B082"/>
<path d="M23.25 9H24.75V10.5H23.25V9Z" fill="#14B082"/>
<path d="M27.75 4.5H29.25V6H27.75V4.5Z" fill="#14B082"/>
<path d="M41.9431 46.0373C41.9999 45.9002 42.0147 45.7493 41.9858 45.6038C41.9568 45.4583 41.8853 45.3246 41.7803 45.2197L37.4304 40.8698L36.0166 35.214L36.7456 30.114C36.7569 30.034 36.7553 29.9528 36.7411 29.8733L35.2411 21.6442C35.187 21.0774 34.9308 20.549 34.5194 20.1553C34.108 19.7617 33.5688 19.5291 33.0001 19.5C32.7453 19.5026 32.4929 19.549 32.2539 19.6373V5.25C32.2527 4.2558 31.8572 3.30267 31.1542 2.59966C30.4512 1.89666 29.498 1.50119 28.5039 1.5H13.5001C12.5059 1.50119 11.5528 1.89666 10.8498 2.59966C10.1468 3.30267 9.75129 4.2558 9.7501 5.25V14.451C9.20443 14.2808 8.6182 14.2926 8.07985 14.4847C7.60952 14.6479 7.1889 14.9289 6.85825 15.3011C6.52761 15.6732 6.29798 16.124 6.19135 16.6102C6.08437 17.0823 6.09854 17.5738 6.23256 18.0389C6.36658 18.5041 6.61608 18.9277 6.95785 19.2705L9.17485 21.4875C8.56619 21.7948 8.09039 22.3134 7.83652 22.9463C7.58264 23.5791 7.5681 24.2827 7.7956 24.9255C7.20142 25.0179 6.6517 25.2959 6.2251 25.7197C5.9581 25.9862 5.74627 26.3026 5.60174 26.651C5.45721 26.9994 5.38281 27.3728 5.38281 27.75C5.38281 28.1272 5.45721 28.5006 5.60174 28.849C5.74627 29.1974 5.9581 29.5138 6.2251 29.7803L7.4521 31.0072C6.9888 31.1367 6.56604 31.3819 6.2236 31.7197C5.68583 32.2586 5.3838 32.9887 5.3838 33.75C5.3838 34.5113 5.68583 35.2414 6.2236 35.7803L9.2236 38.7803C9.38227 38.9356 9.55845 39.072 9.7486 39.1868V39.75C9.74979 40.7442 10.1453 41.6973 10.8483 42.4003C11.5513 43.1033 12.5044 43.4988 13.4986 43.5H20.6881L23.4684 46.2803C23.5382 46.3501 23.6211 46.4054 23.7123 46.4431C23.8036 46.4809 23.9014 46.5002 24.0001 46.5H41.2501C41.3984 46.5 41.5434 46.4561 41.6668 46.3737C41.7901 46.2914 41.8863 46.1743 41.9431 46.0373ZM17.2501 3H24.7501V4.5H17.2501V3ZM11.2501 15.75V5.25C11.2501 4.65326 11.4872 4.08097 11.9091 3.65901C12.3311 3.23705 12.9034 3 13.5001 3H15.7501V5.25C15.7501 5.44891 15.8291 5.63968 15.9698 5.78033C16.1104 5.92098 16.3012 6 16.5001 6H25.5001C25.699 6 25.8898 5.92098 26.0304 5.78033C26.1711 5.63968 26.2501 5.44891 26.2501 5.25V3H28.5001C29.0968 3 29.6691 3.23705 30.0911 3.65901C30.513 4.08097 30.7501 4.65326 30.7501 5.25V36H14.0139C13.888 35.5167 13.6371 35.0752 13.2864 34.7197L12.0549 33.4883C12.6545 33.3249 13.1832 32.9677 13.5586 32.4724C13.934 31.9771 14.1349 31.3715 14.1301 30.75C14.1256 30.441 14.0709 30.1347 13.9681 29.8433C14.3787 29.781 14.7704 29.6282 15.1147 29.3959C15.459 29.1635 15.7472 28.8575 15.9586 28.5H19.5001C19.699 28.5 19.8898 28.421 20.0304 28.2803C20.1711 28.1397 20.2501 27.9489 20.2501 27.75V23.25C20.2501 23.0511 20.1711 22.8603 20.0304 22.7197C19.8898 22.579 19.699 22.5 19.5001 22.5H15.0001C14.8012 22.5 14.6104 22.579 14.4698 22.7197C14.3291 22.8603 14.2501 23.0511 14.2501 23.25V23.7L12.5326 21.9832C12.175 21.6345 11.7331 21.3844 11.2501 21.2572V15.75ZM15.7501 25.245V24H18.7501V27H16.3786C16.3707 26.362 16.1494 25.7449 15.7501 25.2472V25.245ZM8.01835 18.21C7.85564 18.0451 7.73714 17.8418 7.67383 17.6189C7.61051 17.3961 7.60441 17.1608 7.6561 16.935C7.70905 16.6948 7.8237 16.4725 7.98876 16.29C8.15382 16.1076 8.36358 15.9714 8.59735 15.8948C8.71424 15.8526 8.8376 15.8313 8.96185 15.8317C9.2453 15.8356 9.52062 15.9271 9.7501 16.0935V19.9417L8.01835 18.21ZM9.53785 23.0452C9.80104 22.7947 10.1495 22.6535 10.5129 22.65C10.8747 22.6488 11.2223 22.7909 11.4796 23.0452L14.4751 26.04C14.7343 26.2985 14.881 26.6489 14.8831 27.015C14.8821 27.1813 14.8508 27.3459 14.7909 27.501C14.7247 27.6832 14.6186 27.8482 14.4803 27.984C14.2434 28.2214 13.9278 28.3641 13.5931 28.3852C13.2583 28.4063 12.9273 28.3045 12.6623 28.0988L9.54085 24.984C9.41294 24.8572 9.31148 24.7062 9.24235 24.5399C9.17321 24.3735 9.13778 24.1951 9.1381 24.015C9.13892 23.6518 9.2825 23.3035 9.53785 23.0452ZM7.28785 28.7197C7.09589 28.5275 6.96531 28.2826 6.91264 28.0161C6.85997 27.7495 6.88759 27.4734 6.992 27.2225C7.09641 26.9717 7.27291 26.7575 7.49914 26.6071C7.72538 26.4567 7.99117 26.3768 8.26285 26.3775C8.57215 26.3783 8.87203 26.484 9.11335 26.6775L12.2251 29.7803C12.4732 30.0393 12.61 30.3852 12.6062 30.7439C12.6023 31.1026 12.4581 31.4455 12.2045 31.6991C11.9508 31.9528 11.6079 32.097 11.2492 32.1008C10.8906 32.1047 10.5446 31.9679 10.2856 31.7197L7.28785 28.7197ZM10.2879 37.7197L7.28785 34.7197C7.04749 34.4595 6.91713 34.1164 6.92405 33.7622C6.93098 33.408 7.07466 33.0702 7.325 32.8196C7.57535 32.569 7.91296 32.4249 8.26713 32.4176C8.62131 32.4102 8.96459 32.5402 9.2251 32.7803L12.2251 35.7803C12.4732 36.0393 12.61 36.3852 12.6062 36.7439C12.6023 37.1026 12.4581 37.4455 12.2045 37.6991C11.9508 37.9528 11.6079 38.097 11.2492 38.1008C10.8906 38.1047 10.5446 37.9679 10.2856 37.7197H10.2879ZM13.5001 42C12.9034 42 12.3311 41.7629 11.9091 41.341C11.4872 40.919 11.2501 40.3467 11.2501 39.75V39.6188H11.2561C11.8861 39.6231 12.4994 39.417 12.999 39.0332C13.4985 38.6494 13.8557 38.1098 14.0139 37.5H30.7501V39.75C30.7501 40.3467 30.513 40.919 30.0911 41.341C29.6691 41.7629 29.0968 42 28.5001 42H13.5001ZM24.3106 45L22.8106 43.5H28.5001C29.4943 43.4988 30.4474 43.1033 31.1504 42.4003C31.8534 41.6973 32.2489 40.7442 32.2501 39.75V21.7455C32.2513 21.5474 32.3308 21.3578 32.4714 21.2181C32.6119 21.0784 32.802 21 33.0001 21C33.3916 21 33.6938 21.4395 33.7621 21.8843L35.2404 30.015L34.5076 35.1435C34.4942 35.2396 34.4993 35.3373 34.5226 35.4315L36.0226 41.4315C36.0555 41.5635 36.1237 41.684 36.2199 41.7803L39.4396 45H24.3106Z" fill="#14B082"/>
<path d="M19.5 39H22.5V40.5H19.5V39Z" fill="#14B082"/>
<path d="M15 21H19.5C19.6989 21 19.8897 20.921 20.0303 20.7803C20.171 20.6397 20.25 20.4489 20.25 20.25V15.75C20.25 15.5511 20.171 15.3603 20.0303 15.2197C19.8897 15.079 19.6989 15 19.5 15H15C14.8011 15 14.6103 15.079 14.4697 15.2197C14.329 15.3603 14.25 15.5511 14.25 15.75V20.25C14.25 20.4489 14.329 20.6397 14.4697 20.7803C14.6103 20.921 14.8011 21 15 21ZM15.75 16.5H18.75V19.5H15.75V16.5Z" fill="#14B082"/>
<path d="M21.75 20.25C21.75 20.4489 21.829 20.6397 21.9697 20.7803C22.1103 20.921 22.3011 21 22.5 21H27C27.1989 21 27.3897 20.921 27.5303 20.7803C27.671 20.6397 27.75 20.4489 27.75 20.25V15.75C27.75 15.5511 27.671 15.3603 27.5303 15.2197C27.3897 15.079 27.1989 15 27 15H22.5C22.3011 15 22.1103 15.079 21.9697 15.2197C21.829 15.3603 21.75 15.5511 21.75 15.75V20.25ZM23.25 16.5H26.25V19.5H23.25V16.5Z" fill="#14B082"/>
<path d="M27 22.5H22.5C22.3011 22.5 22.1103 22.579 21.9697 22.7197C21.829 22.8603 21.75 23.0511 21.75 23.25V27.75C21.75 27.9489 21.829 28.1397 21.9697 28.2803C22.1103 28.421 22.3011 28.5 22.5 28.5H27C27.1989 28.5 27.3897 28.421 27.5303 28.2803C27.671 28.1397 27.75 27.9489 27.75 27.75V23.25C27.75 23.0511 27.671 22.8603 27.5303 22.7197C27.3897 22.579 27.1989 22.5 27 22.5ZM26.25 27H23.25V24H26.25V27Z" fill="#14B082"/>
<path d="M17.25 33H18.75V34.5H17.25V33Z" fill="#14B082"/>
<path d="M20.25 33H21.75V34.5H20.25V33Z" fill="#14B082"/>
<path d="M23.25 33H24.75V34.5H23.25V33Z" fill="#14B082"/>
</svg>
