<svg width="48" height="48" viewBox="0 0 48 48" fill="none" xmlns="http://www.w3.org/2000/svg">
<g clip-path="url(#clip0_51_30941)">
<path d="M23.9062 43.7344C25.6149 43.7344 27 42.3492 27 40.6406C27 38.932 25.6149 37.5469 23.9062 37.5469C22.1976 37.5469 20.8125 38.932 20.8125 40.6406C20.8125 42.3492 22.1976 43.7344 23.9062 43.7344Z" fill="#14B082"/>
<path d="M47.4966 14.5185C41.3345 7.90696 32.9901 4.26572 23.9996 4.26562C15.01 4.26572 6.66559 7.90696 0.503315 14.5185C-0.202622 15.276 -0.160903 16.4625 0.596596 17.1685C1.35419 17.8744 2.54059 17.8328 3.24662 17.0752C8.69161 11.2331 16.0618 8.01571 24.0003 8.01562C31.9381 8.01571 39.3083 11.2331 44.7533 17.0752C45.1226 17.4714 45.6233 17.6718 46.1254 17.6718C46.5831 17.6718 47.042 17.5052 47.4034 17.1685C48.1609 16.4624 48.2027 15.276 47.4966 14.5185Z" fill="#14B082"/>
<path d="M40.6121 22.2617C36.057 17.6722 30.1575 15.1448 24 15.145C17.8411 15.1451 11.9414 17.6726 7.38778 22.2618C6.65841 22.9969 6.663 24.1841 7.3981 24.9135C8.13319 25.6428 9.32034 25.6382 10.0497 24.9032C13.8939 21.0289 18.8482 18.8951 24 18.895C29.1504 18.8948 34.1047 21.0287 37.9503 24.9033C38.3169 25.2726 38.7989 25.4575 39.2812 25.4575C39.7586 25.4575 40.2363 25.2762 40.6021 24.9133C41.337 24.1838 41.3415 22.9967 40.6121 22.2617Z" fill="#14B082"/>
<path d="M33.1086 30.0274C30.6692 27.6106 27.1726 26.1094 23.9831 26.1094C23.9827 26.1094 23.982 26.1094 23.9817 26.1094H23.8466C23.846 26.1094 23.8457 26.1094 23.8452 26.1094C20.6555 26.1094 17.1586 27.6107 14.7194 30.0274C13.9838 30.7562 13.9783 31.9433 14.7071 32.679C15.0737 33.049 15.5564 33.2344 16.0391 33.2344C16.516 33.2344 16.9931 33.0535 17.3586 32.6914C19.0951 30.9709 21.6411 29.8594 23.8453 29.8594C23.8456 29.8594 23.846 29.8594 23.8463 29.8594H23.9819C23.9823 29.8594 23.9824 29.8594 23.9828 29.8594C26.1867 29.8594 28.7329 30.971 30.4692 32.6914C31.2048 33.4201 32.3921 33.4148 33.1209 32.679C33.8498 31.9434 33.8442 30.7562 33.1086 30.0274Z" fill="#14B082"/>
</g>
<defs>
<clipPath id="clip0_51_30941">
<rect width="48" height="48" fill="white"/>
</clipPath>
</defs>
</svg>
