<svg width="48" height="48" viewBox="0 0 48 48" fill="none" xmlns="http://www.w3.org/2000/svg">
<g clip-path="url(#clip0_51_30974)">
<path d="M34.8692 39.1237H25.8301L24.8843 38.178L27.2576 35.8047C27.5183 35.5439 27.6272 35.173 27.5486 34.8126C27.4701 34.4523 27.2168 34.1605 26.8714 34.032L14.4833 29.4215C14.0485 29.2596 13.5743 29.3628 13.246 29.6912C12.9178 30.0195 12.8145 30.4936 12.9764 30.9285L16.0264 39.1237H3.60619C2.39306 39.1237 1.40625 38.1369 1.40625 36.9239V21.7559C1.40625 21.3675 1.09153 21.0527 0.703125 21.0527C0.314719 21.0527 0 21.3675 0 21.7559V36.9239C0 38.9123 1.61775 40.53 3.60619 40.53H16.5498L17.5868 43.3164C17.7153 43.6621 18.0072 43.9154 18.3676 43.9939C18.7279 44.0726 19.0989 43.9636 19.3595 43.7029L21.7327 41.3297L24.1487 43.7457C24.3772 43.974 24.6772 44.088 24.9772 44.088C25.2773 44.088 25.5773 43.9739 25.8058 43.7456L27.3003 42.2512C27.757 41.7943 27.7569 41.0508 27.3002 40.594C27.3002 40.594 27.3002 40.594 27.3001 40.594L27.2363 40.5302H34.8691C35.2575 40.5302 35.5722 40.2155 35.5722 39.8271C35.5722 39.4387 35.2575 39.1237 34.8692 39.1237ZM24.9773 42.5851L22.23 39.8379C22.0927 39.7006 21.9128 39.632 21.7327 39.632C21.5528 39.632 21.3728 39.7006 21.2355 39.8379L18.7264 42.347L14.4729 30.9181L25.9017 35.1717L23.3926 37.6808C23.118 37.9555 23.118 38.4006 23.3927 38.6752L26.1399 41.4224L24.9773 42.5851Z" fill="#14B082"/>
<path d="M44.3938 3.9126H41.9355C41.5471 3.9126 41.2324 4.22732 41.2324 4.61572C41.2324 5.00413 41.5471 5.31885 41.9355 5.31885H44.3938C45.6068 5.31885 46.5938 6.30566 46.5938 7.51879V11.9242H1.40625V7.51879C1.40625 6.30575 2.39306 5.31885 3.60619 5.31885H38.6836C39.072 5.31885 39.3867 5.00413 39.3867 4.61572C39.3867 4.22732 39.072 3.9126 38.6836 3.9126H3.60619C1.61775 3.9126 0 5.53035 0 7.51879V18.5918C0 18.9802 0.314719 19.2949 0.703125 19.2949C1.09153 19.2949 1.40625 18.9802 1.40625 18.5918V13.3305H46.5938V36.9239C46.5938 38.1369 45.6069 39.1238 44.3938 39.1238H38.2383C37.8499 39.1238 37.5352 39.4385 37.5352 39.8269C37.5352 40.2153 37.8499 40.53 38.2383 40.53H44.3938C46.3822 40.53 48 38.9123 48 36.9239V7.51879C48 5.53035 46.3822 3.9126 44.3938 3.9126Z" fill="#14B082"/>
<path d="M4.66016 8.62171C4.66016 9.34105 5.24328 9.92418 5.96253 9.92418C6.68178 9.92418 7.26491 9.34105 7.26491 8.62171C7.26491 7.90237 6.68178 7.31934 5.96253 7.31934C5.24328 7.31934 4.66016 7.90237 4.66016 8.62171Z" fill="#14B082"/>
<path d="M8.66602 8.62171C8.66602 9.34105 9.24914 9.92418 9.96839 9.92418C10.6876 9.92418 11.2708 9.34105 11.2708 8.62171C11.2708 7.90237 10.6876 7.31934 9.96839 7.31934C9.24914 7.31934 8.66602 7.90237 8.66602 8.62171Z" fill="#14B082"/>
<path d="M12.6719 8.62171C12.6719 9.34105 13.255 9.92418 13.9742 9.92418C14.6935 9.92418 15.2766 9.34105 15.2766 8.62171C15.2766 7.90237 14.6935 7.31934 13.9742 7.31934C13.255 7.31934 12.6719 7.90237 12.6719 8.62171Z" fill="#14B082"/>
<path d="M8.60691 28.8104H8.61094C8.90813 28.8104 9.17344 28.6235 9.27319 28.3434L11.0149 23.456L12.6791 28.3344C12.7759 28.618 13.0419 28.8092 13.3417 28.8105H13.3446C13.6432 28.8105 13.9092 28.6219 14.0081 28.3399L16.3691 21.6043C16.4976 21.238 16.3046 20.8367 15.9381 20.7082C15.5719 20.5797 15.1704 20.7727 15.0419 21.1392L13.3535 25.956L11.6948 21.0937C11.5068 20.4758 10.5631 20.47 10.3671 21.0847L8.62294 25.9789L6.96394 21.151C6.83775 20.7837 6.43781 20.5881 6.0705 20.7146C5.70328 20.8408 5.50781 21.2409 5.63409 21.6081L7.94597 28.3358C8.043 28.6183 8.30813 28.8086 8.60691 28.8104Z" fill="#14B082"/>
<path d="M21.6167 28.8105H21.6207C21.9179 28.8105 22.1832 28.6235 22.283 28.3434L24.0246 23.456L25.6889 28.3345C25.7856 28.6181 26.0517 28.8092 26.3514 28.8105H26.3543C26.6529 28.8105 26.919 28.6219 27.0179 28.3399L29.3789 21.6044C29.5073 21.238 29.3144 20.8367 28.9478 20.7082C28.5816 20.5798 28.1802 20.7727 28.0517 21.1393L26.3632 25.956L24.7046 21.0937C24.5165 20.4757 23.5729 20.4701 23.3768 21.0847L21.6327 25.9789L19.9737 21.1512C19.8475 20.7839 19.4474 20.5882 19.0803 20.7148C18.713 20.841 18.5176 21.241 18.6439 21.6082L20.9557 28.3359C21.0529 28.6184 21.318 28.8087 21.6167 28.8105Z" fill="#14B082"/>
<path d="M34.4157 28.8104H34.4196C34.7168 28.8104 34.9821 28.6235 35.0819 28.3434L36.8236 23.456L38.4878 28.3344C38.5846 28.618 38.8506 28.8092 39.1503 28.8105H39.1533C39.4518 28.8105 39.7179 28.6219 39.8168 28.3399L42.1777 21.6043C42.3062 21.238 42.1132 20.8367 41.7467 20.7082C41.3804 20.5797 40.979 20.7727 40.8505 21.1392L39.1622 25.956L37.5035 21.0937C37.3156 20.4758 36.3717 20.47 36.1757 21.0847L34.4316 25.9789L32.7725 21.1511C32.6463 20.7839 32.2469 20.5884 31.8791 20.7147C31.5119 20.8409 31.3164 21.2409 31.4427 21.6082L33.7547 28.3359C33.8518 28.6183 34.1168 28.8086 34.4157 28.8104Z" fill="#14B082"/>
</g>
<defs>
<clipPath id="clip0_51_30974">
<rect width="48" height="48" fill="white"/>
</clipPath>
</defs>
</svg>
