<svg width="48" height="48" viewBox="0 0 48 48" fill="none" xmlns="http://www.w3.org/2000/svg">
<g id="Menu">
<path id="Vector" d="M16.6631 35.6916C16.5704 35.8601 16.4269 35.9106 16.2921 35.9106C16.1573 35.9106 16.0226 35.8601 15.9299 35.6916L14.9606 33.8712V37.5622C14.9606 37.79 14.6826 37.9079 14.4131 37.9079C14.1348 37.9079 13.8652 37.79 13.8652 37.5622V32.295C13.8652 31.8907 14.1348 31.7476 14.4131 31.7476C14.809 31.7476 14.9862 31.8318 15.2642 32.3287L16.3009 34.2165L17.3373 32.3287C17.6156 31.8318 17.8009 31.7476 18.1971 31.7476C18.4751 31.7476 18.7446 31.8907 18.7446 32.295V37.5622C18.7446 37.79 18.4667 37.9079 18.1971 37.9079C17.9188 37.9079 17.6493 37.79 17.6493 37.5622V33.9386L16.6631 35.6916Z" fill="#14B082"/>
<path id="Vector_2" d="M21.7949 34.3933H23.0759C23.2949 34.3933 23.4213 34.6042 23.4213 34.8317C23.4213 35.0254 23.3118 35.2532 23.0759 35.2532H21.7949V36.9469H24.1797C24.399 36.9469 24.5254 37.1743 24.5254 37.4358C24.5254 37.6632 24.4159 37.9078 24.1797 37.9078H21.1797C20.9354 37.9078 20.6992 37.7895 20.6992 37.5621V32.0928C20.6992 31.8654 20.9351 31.7471 21.1797 31.7471H24.1797C24.4159 31.7471 24.5254 31.9917 24.5254 32.2191C24.5254 32.4806 24.399 32.708 24.1797 32.708H21.7949V34.3933Z" fill="#14B082"/>
<path id="Vector_3" d="M29.0171 37.5621L27.2051 34.1743V37.5621C27.2051 37.7899 26.9271 37.9078 26.6572 37.9078C26.3793 37.9078 26.1094 37.7899 26.1094 37.5621V32.0928C26.1094 31.8569 26.3793 31.7474 26.6572 31.7474C27.0535 31.7474 27.2135 31.8317 27.475 32.3286L29.1013 35.4722V32.0843C29.1013 31.8485 29.3708 31.7471 29.6492 31.7471C29.9187 31.7471 30.1967 31.8481 30.1967 32.0843V37.5621C30.1967 37.7895 29.9187 37.9078 29.6492 37.9078C29.3877 37.9078 29.1603 37.8236 29.0171 37.5621Z" fill="#14B082"/>
<path id="Vector_4" d="M35.0768 32.0845C35.0768 31.8486 35.3463 31.7476 35.6243 31.7476C35.8942 31.7476 36.1721 31.8486 36.1721 32.0845V36.0286C36.1721 37.4359 35.2789 37.9585 34.1495 37.9585C33.0117 37.9585 32.127 37.4359 32.127 36.0286V32.0845C32.127 31.8486 32.3965 31.7476 32.6748 31.7476C32.9443 31.7476 33.2223 31.8486 33.2223 32.0845V36.0286C33.2223 36.6859 33.568 36.9979 34.1495 36.9979C34.7311 36.9979 35.0764 36.6859 35.0764 36.0286V32.0845H35.0768Z" fill="#14B082"/>
<path id="Vector_5" d="M37.2433 39.5762H33.2373C32.844 39.5762 32.5254 39.8948 32.5254 40.2877C32.5254 40.681 32.844 40.9993 33.2373 40.9993H37.2433C37.6366 40.9993 37.9548 40.681 37.9548 40.2877C37.9548 39.8948 37.6366 39.5762 37.2433 39.5762Z" fill="#14B082"/>
<path id="Vector_6" d="M29.9248 39.5762H13.7115C13.3186 39.5762 13 39.8948 13 40.2877C13 40.681 13.3186 40.9993 13.7115 40.9993H29.9248C30.3181 40.9993 30.6364 40.681 30.6364 40.2877C30.6364 39.8948 30.3181 39.5762 29.9248 39.5762Z" fill="#14B082"/>
<path id="Vector_7" d="M37.2421 28.71H13.7115C13.3186 28.71 13 29.0286 13 29.4215C13 29.8145 13.3186 30.1331 13.7115 30.1331H37.2421C37.6354 30.1331 37.9536 29.8145 37.9536 29.4215C37.9536 29.0286 37.6354 28.71 37.2421 28.71Z" fill="#14B082"/>
<path id="Vector_8" d="M36.8462 19.8869H36.1555C35.8889 14.9837 32.3048 10.9488 27.614 9.99377L27.7513 8.6809C27.7964 8.25244 27.6565 7.82324 27.3683 7.50354C27.0801 7.18347 26.6677 7 26.2371 7H24.7169C24.2859 7 23.8739 7.18384 23.5853 7.50354C23.2971 7.82361 23.1576 8.25281 23.2026 8.6809L23.34 9.99377C18.6492 10.9488 15.0651 14.9834 14.7985 19.8866H14.1078C13.4969 19.8866 13 20.3835 13 20.9944V22.4629C13 23.0737 13.4969 23.5706 14.1078 23.5706H36.8458C37.4567 23.5706 37.9536 23.0737 37.9536 22.4629V20.9944C37.9536 20.3839 37.457 19.8869 36.8462 19.8869ZM24.6429 8.45605C24.6627 8.43445 24.6873 8.42346 24.7169 8.42346H26.2371C26.2664 8.42346 26.2913 8.43445 26.311 8.45605C26.3308 8.47802 26.3392 8.50403 26.3359 8.53296L26.203 9.80444C25.9631 9.78832 25.7211 9.77917 25.4772 9.77917C25.2329 9.77917 24.9912 9.78832 24.7513 9.80444L24.618 8.53296C24.6151 8.50403 24.6235 8.47802 24.6429 8.45605ZM36.5305 22.1476H14.4235V21.31H17.4224C17.8157 21.31 18.1343 20.9914 18.1343 20.5985C18.1343 20.2055 17.8157 19.8869 17.4224 19.8869H16.2245C16.5284 15.0471 20.5619 11.2026 25.4768 11.2026C30.3921 11.2026 34.4255 15.0471 34.7295 19.8869H20.7336C20.3403 19.8869 20.0221 20.2055 20.0221 20.5985C20.0221 20.9914 20.3403 21.31 20.7336 21.31H36.5305V22.1476Z" fill="#14B082"/>
<path id="Vector_9" d="M42.3267 0H8.62903C7.63 0 6.81702 0.812987 6.81702 1.81201V3.09741H6.15308C4.9314 3.09741 3.9375 4.09167 3.9375 5.31334C3.9375 6.53502 4.9314 7.52928 6.15308 7.52928H6.81702V10.5721H6.15308C4.9314 10.5721 3.9375 11.566 3.9375 12.7881C3.9375 14.0097 4.9314 15.0036 6.15308 15.0036H6.81702V18.0468H6.15308C4.9314 18.0468 3.9375 19.0407 3.9375 20.2628C3.9375 21.4845 4.9314 22.4783 6.15308 22.4783H6.81702V25.5216H6.15308C4.9314 25.5216 3.9375 26.5154 3.9375 27.7371C3.9375 28.9592 4.9314 29.9531 6.15308 29.9531H6.81702V32.9963H6.15308C4.9314 32.9963 3.9375 33.9902 3.9375 35.2118C3.9375 36.4339 4.9314 37.4278 6.15308 37.4278H6.81702V40.471H6.15308C4.9314 40.471 3.9375 41.4649 3.9375 42.6866C3.9375 43.9082 4.9314 44.9025 6.15308 44.9025H6.81702V46.1879C6.81702 47.1869 7.63 47.9999 8.62903 47.9999H42.3267C43.3257 47.9999 44.139 47.1869 44.139 46.1879V1.81201C44.139 0.812987 43.3257 0 42.3267 0ZM6.81665 6.10619H6.15308C5.71619 6.10619 5.3606 5.7506 5.3606 5.31334C5.3606 4.87646 5.71619 4.52086 6.15308 4.52086H6.81665V6.10619ZM6.81665 13.5805H6.15308C5.71619 13.5805 5.3606 13.2249 5.3606 12.7881C5.3606 12.3508 5.71619 11.9956 6.15308 11.9956H6.81665V13.5805ZM6.81665 21.0553H6.15308C5.71619 21.0553 5.3606 20.6997 5.3606 20.2628C5.3606 19.8255 5.71619 19.4699 6.15308 19.4699H6.81665V21.0553ZM6.81665 28.53H6.15308C5.71619 28.53 5.3606 28.1744 5.3606 27.7371C5.3606 27.3002 5.71619 26.9446 6.15308 26.9446H6.81665V28.53ZM6.81665 36.0043H6.15308C5.71619 36.0043 5.3606 35.6491 5.3606 35.2118C5.3606 34.775 5.71619 34.4194 6.15308 34.4194H6.81665V36.0043ZM6.81665 43.479H6.15308C5.71619 43.479 5.3606 43.1235 5.3606 42.6866C5.3606 42.2493 5.71619 41.8941 6.15308 41.8941H6.81665V43.479ZM42.7156 46.1875C42.7156 46.4021 42.5413 46.5768 42.3267 46.5768H8.62903C8.41443 46.5768 8.24011 46.4021 8.24011 46.1875V1.81201C8.24011 1.59778 8.41443 1.42309 8.62903 1.42309H42.3267C42.5413 1.42309 42.7156 1.59778 42.7156 1.81201V46.1875Z" fill="#14B082"/>
</g>
</svg>
