<svg width="48" height="48" viewBox="0 0 48 48" fill="none" xmlns="http://www.w3.org/2000/svg">
<g clip-path="url(#clip0_51_31018)">
<path d="M24.3084 17.8135C21.6043 17.8135 19.4121 20.0056 19.4121 22.7098C19.4121 25.4138 21.6042 27.606 24.3084 27.606C27.0125 27.606 29.2047 25.414 29.2047 22.7098C29.2047 20.0056 27.0126 17.8135 24.3084 17.8135ZM24.3084 25.2744C22.8919 25.2744 21.7437 24.1261 21.7437 22.7096C21.7437 21.2932 22.8919 20.1449 24.3084 20.1449C25.7249 20.1449 26.8731 21.2932 26.8731 22.7096C26.8731 24.1261 25.7249 25.2744 24.3084 25.2744Z" fill="#14B082"/>
<path d="M43.8347 6.62219L12.0091 3.00839C10.7739 2.83278 9.52247 3.19337 8.57013 3.99933C7.61789 4.73769 7.0075 5.83218 6.87976 7.03031L6.29692 11.81H4.48985C1.92512 11.81 0.00157522 14.0832 0.00157522 16.6479V40.4879C-0.0630228 42.9336 1.86722 44.9688 4.31302 45.0334C4.37193 45.0349 4.43095 45.0352 4.48985 45.0345H36.4903C39.055 45.0345 41.3866 43.0527 41.3866 40.4879V39.5554C42.1817 39.4017 42.936 39.0841 43.6016 38.6228C44.546 37.8276 45.1507 36.7015 45.2919 35.4752L47.9732 11.81C48.2466 9.23936 46.4018 6.92689 43.8347 6.62219ZM39.055 40.4879C39.055 41.7703 37.7727 42.7029 36.4903 42.7029H4.48985C3.33144 42.7369 2.36481 41.8254 2.33079 40.667C2.329 40.6073 2.32978 40.5476 2.33313 40.4879V36.1746L11.3679 29.5297C12.4533 28.6964 13.982 28.7705 14.9818 29.7045L21.3353 35.3003C22.3002 36.1103 23.5147 36.5632 24.7744 36.5826C25.7593 36.5947 26.7281 36.3324 27.5723 35.8248L39.0551 29.18V40.4879H39.055ZM39.055 26.4404L26.3481 33.8431C25.2569 34.4895 23.8758 34.3724 22.909 33.5516L16.4973 27.8976C14.6596 26.3186 11.9737 26.2217 10.0272 27.6644L2.33313 33.2601V16.6479C2.33313 15.3656 3.20749 14.1416 4.48985 14.1416H36.4903C37.8604 14.1983 38.9668 15.2797 39.055 16.6479V26.4404ZM45.6439 11.4953C45.6431 11.503 45.6425 11.5108 45.6416 11.5185L42.902 35.1837C42.9067 35.7973 42.6269 36.3784 42.1442 36.7574C41.9111 36.9906 41.3865 37.1072 41.3865 37.2238V16.6479C41.2944 13.9925 39.1465 11.8701 36.4902 11.81H8.62837L9.15296 7.26349C9.26676 6.67474 9.57458 6.14122 10.0273 5.74794C10.5385 5.3945 11.1566 5.22971 11.776 5.28159L43.5434 8.95375C44.8251 9.07547 45.7656 10.2134 45.6439 11.4953Z" fill="#14B082"/>
</g>
<defs>
<clipPath id="clip0_51_31018">
<rect width="48" height="48" fill="white"/>
</clipPath>
</defs>
</svg>
